<svg xmlns="http://www.w3.org/2000/svg" viewBox="0 0 560 350" width="100%" role="img" aria-label="Left: the inside of an atom, a packed cluster of filled circles marked plus and open circles with dashed rings around it, and an arrow between the nucleus and a particle drawn above it, labeled with the change. Right: the table of the first ten elements and the number of protons in each" font-family="Helvetica,Arial,sans-serif" font-size="13" fill="#222"><rect width="560" height="350" fill="#ffffff"/><!--blind: Left, the inside of an atom before the change: in the nucleus 6 filled circles marked plus and 6 open circles with no mark; on the rings 6 small dark dots marked minus; 2 protons added to the nucleus. Right, the table of the first ten elements: hydrogen 1, helium 2, lithium 3, beryllium 4, boron 5, carbon 6, nitrogen 7, oxygen 8, fluorine 9, neon 10.--><g transform="translate(150.0 205.0) scale(1.40)"><circle cx="0.0" cy="0.0" r="50" fill="none" stroke="#555" stroke-width="1" stroke-dasharray="3 3"/><circle cx="0.0" cy="0.0" r="68" fill="none" stroke="#555" stroke-width="1" stroke-dasharray="3 3"/><circle cx="12.2" cy="3.3" r="6.0" fill="#ffffff" stroke="#222" stroke-width="1"/><circle cx="-8.9" cy="8.9" r="6.0" fill="#ffffff" stroke="#222" stroke-width="1"/><circle cx="-3.3" cy="-12.2" r="6.0" fill="#ffffff" stroke="#222" stroke-width="1"/><circle cx="15.4" cy="15.4" r="6.0" fill="#ffffff" stroke="#222" stroke-width="1"/><circle cx="-21.1" cy="5.6" r="6.0" fill="#ffffff" stroke="#222" stroke-width="1"/><circle cx="5.6" cy="-21.1" r="6.0" fill="#ffffff" stroke="#222" stroke-width="1"/><circle cx="0.0" cy="0.0" r="6.0" fill="#555" stroke="#222" stroke-width="1"/><text x="0.0" y="3.7" text-anchor="middle" font-size="11.4" font-weight="bold" fill="#ffffff">+</text><circle cx="3.3" cy="12.2" r="6.0" fill="#555" stroke="#222" stroke-width="1"/><text x="3.3" y="15.9" text-anchor="middle" font-size="11.4" font-weight="bold" fill="#ffffff">+</text><circle cx="-12.2" cy="-3.3" r="6.0" fill="#555" stroke="#222" stroke-width="1"/><text x="-12.2" y="0.5" text-anchor="middle" font-size="11.4" font-weight="bold" fill="#ffffff">+</text><circle cx="8.9" cy="-8.9" r="6.0" fill="#555" stroke="#222" stroke-width="1"/><text x="8.9" y="-5.2" text-anchor="middle" font-size="11.4" font-weight="bold" fill="#ffffff">+</text><circle cx="-5.6" cy="21.1" r="6.0" fill="#555" stroke="#222" stroke-width="1"/><text x="-5.6" y="24.8" text-anchor="middle" font-size="11.4" font-weight="bold" fill="#ffffff">+</text><circle cx="-15.4" cy="-15.4" r="6.0" fill="#555" stroke="#222" stroke-width="1"/><text x="-15.4" y="-11.7" text-anchor="middle" font-size="11.4" font-weight="bold" fill="#ffffff">+</text><circle cx="0.0" cy="0.0" r="32.8" fill="none" stroke="#222" stroke-width="1.2" stroke-dasharray="4 2"/><circle cx="35.4" cy="-35.4" r="3.2" fill="#222"/><text x="41.0" y="-37.0" text-anchor="middle" font-size="12" font-weight="bold" fill="#222">−</text><circle cx="-35.4" cy="35.4" r="3.2" fill="#222"/><text x="-41.0" y="45.0" text-anchor="middle" font-size="12" font-weight="bold" fill="#222">−</text><circle cx="62.6" cy="-26.6" r="3.2" fill="#222"/><text x="70.0" y="-25.7" text-anchor="middle" font-size="12" font-weight="bold" fill="#222">−</text><circle cx="26.6" cy="62.6" r="3.2" fill="#222"/><text x="29.7" y="74.0" text-anchor="middle" font-size="12" font-weight="bold" fill="#222">−</text><circle cx="-62.6" cy="26.6" r="3.2" fill="#222"/><text x="-70.0" y="33.7" text-anchor="middle" font-size="12" font-weight="bold" fill="#222">−</text><circle cx="-26.6" cy="-62.6" r="3.2" fill="#222"/><text x="-29.7" y="-66.0" text-anchor="middle" font-size="12" font-weight="bold" fill="#222">−</text></g><circle cx="60.0" cy="42.0" r="8.4" fill="#555" stroke="#222" stroke-width="2.2"/><text x="60.0" y="47.2" text-anchor="middle" font-size="16.0" font-weight="bold" fill="#ffffff">+</text><circle cx="80.8" cy="42.0" r="8.4" fill="#555" stroke="#222" stroke-width="2.2"/><text x="80.8" y="47.2" text-anchor="middle" font-size="16.0" font-weight="bold" fill="#ffffff">+</text><line x1="70.4" y1="52.4" x2="122.1" y2="166.0" stroke="#222" stroke-width="1.8"/><polyline points="117.5,162.1 122.1,166.0 122.3,160.0" fill="none" stroke="#222" stroke-width="1.8"/><text x="97.19999999999999" y="47" text-anchor="start" font-size="13" font-weight="bold" fill="#222">two protons added</text><rect x="320" y="10" width="220" height="28" fill="#f1f1f1" stroke="#222"/><text x="385.0" y="29" text-anchor="middle" font-size="13" font-weight="bold" fill="#222">element</text><text x="495.0" y="29" text-anchor="middle" font-size="13" font-weight="bold" fill="#222">protons</text><rect x="320" y="38" width="220" height="28" fill="#ffffff" stroke="#222"/><text x="385.0" y="57" text-anchor="middle" font-size="13" font-weight="bold" fill="#222">hydrogen</text><text x="495.0" y="57" text-anchor="middle" font-size="13" font-weight="normal" fill="#222">1</text><rect x="320" y="66" width="220" height="28" fill="#ffffff" stroke="#222"/><text x="385.0" y="85" text-anchor="middle" font-size="13" font-weight="bold" fill="#222">helium</text><text x="495.0" y="85" text-anchor="middle" font-size="13" font-weight="normal" fill="#222">2</text><rect x="320" y="94" width="220" height="28" fill="#ffffff" stroke="#222"/><text x="385.0" y="113" text-anchor="middle" font-size="13" font-weight="bold" fill="#222">lithium</text><text x="495.0" y="113" text-anchor="middle" font-size="13" font-weight="normal" fill="#222">3</text><rect x="320" y="122" width="220" height="28" fill="#ffffff" stroke="#222"/><text x="385.0" y="141" text-anchor="middle" font-size="13" font-weight="bold" fill="#222">beryllium</text><text x="495.0" y="141" text-anchor="middle" font-size="13" font-weight="normal" fill="#222">4</text><rect x="320" y="150" width="220" height="28" fill="#ffffff" stroke="#222"/><text x="385.0" y="169" text-anchor="middle" font-size="13" font-weight="bold" fill="#222">boron</text><text x="495.0" y="169" text-anchor="middle" font-size="13" font-weight="normal" fill="#222">5</text><rect x="320" y="178" width="220" height="28" fill="#ffffff" stroke="#222"/><text x="385.0" y="197" text-anchor="middle" font-size="13" font-weight="bold" fill="#222">carbon</text><text x="495.0" y="197" text-anchor="middle" font-size="13" font-weight="normal" fill="#222">6</text><rect x="320" y="206" width="220" height="28" fill="#ffffff" stroke="#222"/><text x="385.0" y="225" text-anchor="middle" font-size="13" font-weight="bold" fill="#222">nitrogen</text><text x="495.0" y="225" text-anchor="middle" font-size="13" font-weight="normal" fill="#222">7</text><rect x="320" y="234" width="220" height="28" fill="#ffffff" stroke="#222"/><text x="385.0" y="253" text-anchor="middle" font-size="13" font-weight="bold" fill="#222">oxygen</text><text x="495.0" y="253" text-anchor="middle" font-size="13" font-weight="normal" fill="#222">8</text><rect x="320" y="262" width="220" height="28" fill="#ffffff" stroke="#222"/><text x="385.0" y="281" text-anchor="middle" font-size="13" font-weight="bold" fill="#222">fluorine</text><text x="495.0" y="281" text-anchor="middle" font-size="13" font-weight="normal" fill="#222">9</text><rect x="320" y="290" width="220" height="28" fill="#ffffff" stroke="#222"/><text x="385.0" y="309" text-anchor="middle" font-size="13" font-weight="bold" fill="#222">neon</text><text x="495.0" y="309" text-anchor="middle" font-size="13" font-weight="normal" fill="#222">10</text><line x1="450" y1="10" x2="450" y2="318" stroke="#222"/></svg>