<svg xmlns="http://www.w3.org/2000/svg" viewBox="0 0 320 236" width="100%" role="img" aria-label="The inside of an atom, drawn as a packed cluster of filled circles marked plus and open circles at the center, with dashed rings around it" font-family="Helvetica,Arial,sans-serif" font-size="13" fill="#222"><rect width="320" height="236" fill="#ffffff"/><g transform="translate(160.0 118.0) scale(1.30)"><circle cx="0.0" cy="0.0" r="50" fill="none" stroke="#555" stroke-width="1" stroke-dasharray="3 3"/><circle cx="0.0" cy="0.0" r="68" fill="none" stroke="#555" stroke-width="1" stroke-dasharray="3 3"/><circle cx="-0.9" cy="-12.6" r="6.0" fill="#ffffff" stroke="#222" stroke-width="1"/><circle cx="11.3" cy="5.5" r="6.0" fill="#ffffff" stroke="#222" stroke-width="1"/><circle cx="-10.4" cy="7.0" r="6.0" fill="#ffffff" stroke="#222" stroke-width="1"/><circle cx="-12.2" cy="-18.1" r="6.0" fill="#ffffff" stroke="#222" stroke-width="1"/><circle cx="21.8" cy="-1.5" r="6.0" fill="#ffffff" stroke="#222" stroke-width="1"/><circle cx="-9.6" cy="19.6" r="6.0" fill="#ffffff" stroke="#222" stroke-width="1"/><circle cx="0.0" cy="0.0" r="6.0" fill="#555" stroke="#222" stroke-width="1"/><text x="0.0" y="3.7" text-anchor="middle" font-size="11.4" font-weight="bold" fill="#ffffff">+</text><circle cx="10.4" cy="-7.0" r="6.0" fill="#555" stroke="#222" stroke-width="1"/><text x="10.4" y="-3.3" text-anchor="middle" font-size="11.4" font-weight="bold" fill="#ffffff">+</text><circle cx="0.9" cy="12.6" r="6.0" fill="#555" stroke="#222" stroke-width="1"/><text x="0.9" y="16.3" text-anchor="middle" font-size="11.4" font-weight="bold" fill="#ffffff">+</text><circle cx="-11.3" cy="-5.5" r="6.0" fill="#555" stroke="#222" stroke-width="1"/><text x="-11.3" y="-1.8" text-anchor="middle" font-size="11.4" font-weight="bold" fill="#ffffff">+</text><circle cx="9.6" cy="-19.6" r="6.0" fill="#555" stroke="#222" stroke-width="1"/><text x="9.6" y="-15.9" text-anchor="middle" font-size="11.4" font-weight="bold" fill="#ffffff">+</text><circle cx="12.2" cy="18.1" r="6.0" fill="#555" stroke="#222" stroke-width="1"/><text x="12.2" y="21.8" text-anchor="middle" font-size="11.4" font-weight="bold" fill="#ffffff">+</text><circle cx="-36.0" cy="-34.7" r="3.2" fill="#222"/><text x="-41.7" y="-36.3" text-anchor="middle" font-size="12" font-weight="bold" fill="#222">−</text><circle cx="36.0" cy="34.7" r="3.2" fill="#222"/><text x="41.7" y="44.3" text-anchor="middle" font-size="12" font-weight="bold" fill="#222">−</text><circle cx="-27.7" cy="-62.1" r="3.2" fill="#222"/><text x="-30.9" y="-65.4" text-anchor="middle" font-size="12" font-weight="bold" fill="#222">−</text><circle cx="62.1" cy="-27.7" r="3.2" fill="#222"/><text x="69.4" y="-26.9" text-anchor="middle" font-size="12" font-weight="bold" fill="#222">−</text><circle cx="27.7" cy="62.1" r="3.2" fill="#222"/><text x="30.9" y="73.4" text-anchor="middle" font-size="12" font-weight="bold" fill="#222">−</text><circle cx="-62.1" cy="27.7" r="3.2" fill="#222"/><text x="-69.4" y="34.9" text-anchor="middle" font-size="12" font-weight="bold" fill="#222">−</text></g><!--blind: The inside of an atom drawn as a nucleus with rings: in the nucleus 6 filled circles marked plus and 6 open circles with no mark; on the rings 6 small dark dots marked minus.--></svg>