<svg xmlns="http://www.w3.org/2000/svg" viewBox="0 0 230 170" width="100%" role="img" aria-label="A box of particles drawn as circles, zoomed in on a sample" font-family="Helvetica,Arial,sans-serif" font-size="13" fill="#222"><rect width="230" height="170" fill="#ffffff"/><rect x="20" y="12" width="190" height="140" fill="#ffffff" stroke="#222" stroke-width="1.5"/><circle cx="176.0" cy="36.0" r="5.0" fill="#222" stroke="#222" stroke-width="1"/><circle cx="176.0" cy="47.0" r="7.0" fill="#555" stroke="#222" stroke-width="1"/><circle cx="167.8" cy="128.0" r="5.0" fill="#222" stroke="#222" stroke-width="1"/><circle cx="177.3" cy="122.5" r="7.0" fill="#555" stroke="#222" stroke-width="1"/><circle cx="47.8" cy="124.0" r="5.0" fill="#222" stroke="#222" stroke-width="1"/><circle cx="57.3" cy="118.5" r="7.0" fill="#555" stroke="#222" stroke-width="1"/><circle cx="107.8" cy="76.8" r="5.0" fill="#222" stroke="#222" stroke-width="1"/><circle cx="115.5" cy="84.5" r="7.0" fill="#555" stroke="#222" stroke-width="1"/><circle cx="43.2" cy="41.4" r="5.0" fill="#222" stroke="#222" stroke-width="1"/><circle cx="53.8" cy="44.3" r="7.0" fill="#555" stroke="#222" stroke-width="1"/><circle cx="53.0" cy="73.0" r="5.0" fill="#222" stroke="#222" stroke-width="1"/><circle cx="53.0" cy="84.0" r="7.0" fill="#555" stroke="#222" stroke-width="1"/><circle cx="173.2" cy="82.4" r="5.0" fill="#222" stroke="#222" stroke-width="1"/><circle cx="183.8" cy="85.3" r="7.0" fill="#555" stroke="#222" stroke-width="1"/><circle cx="110.0" cy="121.8" r="5.0" fill="#222" stroke="#222" stroke-width="1"/><circle cx="115.5" cy="131.3" r="7.0" fill="#555" stroke="#222" stroke-width="1"/><circle cx="110.2" cy="36.4" r="5.0" fill="#222" stroke="#222" stroke-width="1"/><circle cx="120.8" cy="39.3" r="7.0" fill="#555" stroke="#222" stroke-width="1"/><!--blind: A box of particles drawn as circles, zoomed in on a sample: nine particles: 9 identical particles, each one gray circle joined to one small dark circle.--></svg>