<svg xmlns="http://www.w3.org/2000/svg" viewBox="0 0 230 170" width="100%" role="img" aria-label="A box of particles drawn as circles, zoomed in on a sample" font-family="Helvetica,Arial,sans-serif" font-size="13" fill="#222"><rect width="230" height="170" fill="#ffffff"/><rect x="20" y="12" width="190" height="140" fill="#ffffff" stroke="#222" stroke-width="1.5"/><circle cx="112.9" cy="82.1" r="10.0" fill="#ffffff" stroke="#222" stroke-width="1"/><circle cx="110.8" cy="65.9" r="7.0" fill="#555" stroke="#222" stroke-width="1"/><circle cx="129.1" cy="84.2" r="7.0" fill="#555" stroke="#222" stroke-width="1"/><circle cx="50.5" cy="84.6" r="10.0" fill="#ffffff" stroke="#222" stroke-width="1"/><circle cx="34.2" cy="82.4" r="7.0" fill="#555" stroke="#222" stroke-width="1"/><circle cx="56.8" cy="69.4" r="7.0" fill="#555" stroke="#222" stroke-width="1"/><circle cx="51.2" cy="40.9" r="10.0" fill="#ffffff" stroke="#222" stroke-width="1"/><circle cx="41.3" cy="27.9" r="7.0" fill="#555" stroke="#222" stroke-width="1"/><circle cx="66.4" cy="34.6" r="7.0" fill="#555" stroke="#222" stroke-width="1"/><circle cx="175.5" cy="87.6" r="10.0" fill="#ffffff" stroke="#222" stroke-width="1"/><circle cx="159.2" cy="85.4" r="7.0" fill="#555" stroke="#222" stroke-width="1"/><circle cx="181.8" cy="72.4" r="7.0" fill="#555" stroke="#222" stroke-width="1"/><circle cx="180.6" cy="39.5" r="10.0" fill="#ffffff" stroke="#222" stroke-width="1"/><circle cx="165.4" cy="45.8" r="7.0" fill="#555" stroke="#222" stroke-width="1"/><circle cx="178.4" cy="23.2" r="7.0" fill="#555" stroke="#222" stroke-width="1"/><circle cx="114.8" cy="124.9" r="10.0" fill="#ffffff" stroke="#222" stroke-width="1"/><circle cx="99.6" cy="118.6" r="7.0" fill="#555" stroke="#222" stroke-width="1"/><circle cx="124.7" cy="111.9" r="7.0" fill="#555" stroke="#222" stroke-width="1"/><circle cx="112.0" cy="40.0" r="10.0" fill="#ffffff" stroke="#222" stroke-width="1"/><circle cx="99.0" cy="30.0" r="7.0" fill="#555" stroke="#222" stroke-width="1"/><circle cx="125.0" cy="30.0" r="7.0" fill="#555" stroke="#222" stroke-width="1"/><circle cx="177.5" cy="126.6" r="10.0" fill="#ffffff" stroke="#222" stroke-width="1"/><circle cx="161.2" cy="124.4" r="7.0" fill="#555" stroke="#222" stroke-width="1"/><circle cx="183.8" cy="111.4" r="7.0" fill="#555" stroke="#222" stroke-width="1"/><circle cx="50.0" cy="124.0" r="10.0" fill="#ffffff" stroke="#222" stroke-width="1"/><circle cx="60.0" cy="111.0" r="7.0" fill="#555" stroke="#222" stroke-width="1"/><circle cx="60.0" cy="137.0" r="7.0" fill="#555" stroke="#222" stroke-width="1"/><!--blind: A box of particles drawn as circles, zoomed in on a sample: nine particles: 9 identical particles, each one large open circle joined to two gray circles.--></svg>